<svg xmlns="http://www.w3.org/2000/svg" viewBox="0 0 19.603 22.403">
  <path d="M0,20.3a2.1,2.1,0,0,0,2.1,2.1H17.5a2.1,2.1,0,0,0,2.1-2.1V8.4H0Zm14-8.576a.527.527,0,0,1,.525-.525h1.75a.527.527,0,0,1,.525.525v1.75a.527.527,0,0,1-.525.525h-1.75A.527.527,0,0,1,14,13.477Zm0,5.6a.527.527,0,0,1,.525-.525h1.75a.527.527,0,0,1,.525.525v1.75a.527.527,0,0,1-.525.525h-1.75A.527.527,0,0,1,14,19.077Zm-5.6-5.6a.527.527,0,0,1,.525-.525h1.75a.527.527,0,0,1,.525.525v1.75a.527.527,0,0,1-.525.525H8.926a.527.527,0,0,1-.525-.525Zm0,5.6a.527.527,0,0,1,.525-.525h1.75a.527.527,0,0,1,.525.525v1.75a.527.527,0,0,1-.525.525H8.926a.527.527,0,0,1-.525-.525Zm-5.6-5.6a.527.527,0,0,1,.525-.525h1.75a.527.527,0,0,1,.525.525v1.75A.527.527,0,0,1,5.076,14H3.325a.527.527,0,0,1-.525-.525Zm0,5.6a.527.527,0,0,1,.525-.525h1.75a.527.527,0,0,1,.525.525v1.75a.527.527,0,0,1-.525.525H3.325a.527.527,0,0,1-.525-.525ZM17.5,2.8H15.4V.7a.7.7,0,0,0-.7-.7H13.3a.7.7,0,0,0-.7.7V2.8H7V.7A.7.7,0,0,0,6.3,0H4.9a.7.7,0,0,0-.7.7V2.8H2.1A2.1,2.1,0,0,0,0,4.9V7H19.6V4.9A2.1,2.1,0,0,0,17.5,2.8Z" fill="#63376F"/>
</svg>
