<svg xmlns="http://www.w3.org/2000/svg" viewBox="0 0 16.844 22.46">
  <path d="M7.979,11.234a4.232,4.232,0,0,1-.088-2.057C8.26,9.177,8.225,10.8,7.979,11.234ZM7.9,13.3a20.241,20.241,0,0,1-1.246,2.75,16.153,16.153,0,0,1,2.759-.961A5.682,5.682,0,0,1,7.9,13.3ZM3.777,18.779c0,.035.579-.237,1.531-1.763A6.063,6.063,0,0,0,3.777,18.779Zm7.1-11.761h5.966V21.407a1.05,1.05,0,0,1-1.053,1.053H1.053A1.05,1.05,0,0,1,0,21.407V1.053A1.05,1.05,0,0,1,1.053,0H9.826V5.966A1.056,1.056,0,0,0,10.879,7.019Zm-.351,7.536a4.4,4.4,0,0,1-1.873-2.36,6.305,6.305,0,0,0,.272-2.816,1.1,1.1,0,0,0-2.1-.3,7.294,7.294,0,0,0,.355,3.378A41.192,41.192,0,0,1,5.4,16.222s0,0-.009,0C4.2,16.836,2.158,18.178,3,19.209a1.363,1.363,0,0,0,.943.439c.785,0,1.566-.79,2.68-2.711a25,25,0,0,1,3.465-1.018,6.648,6.648,0,0,0,2.807.855,1.136,1.136,0,0,0,.864-1.9c-.61-.6-2.382-.426-3.229-.316Zm6.01-9.949-4.3-4.3A1.052,1.052,0,0,0,11.493,0H11.23V5.615h5.615V5.347A1.049,1.049,0,0,0,16.538,4.606Zm-3.25,11.2c.18-.118-.11-.522-1.877-.395C13.037,16.1,13.287,15.805,13.287,15.805Z" fill="#919191"/>
</svg>
