<svg xmlns="http://www.w3.org/2000/svg" width="16.895" height="11.879" viewBox="0 0 16.895 11.879">
  <path id="Icon_awesome-youtube" data-name="Icon awesome-youtube" d="M17.592,6.359a2.123,2.123,0,0,0-1.494-1.5A50.168,50.168,0,0,0,9.5,4.5a50.168,50.168,0,0,0-6.6.355A2.123,2.123,0,0,0,1.4,6.359a22.27,22.27,0,0,0-.353,4.093A22.27,22.27,0,0,0,1.4,14.545,2.091,2.091,0,0,0,2.9,16.024a50.168,50.168,0,0,0,6.6.355,50.168,50.168,0,0,0,6.6-.355,2.091,2.091,0,0,0,1.494-1.479,22.27,22.27,0,0,0,.353-4.093,22.27,22.27,0,0,0-.353-4.093Zm-9.822,6.6V7.94l4.416,2.512L7.77,12.964Z" transform="translate(-1.05 -4.5)" fill="#777"/>
</svg>
