<svg id="Icon_ionic-ios-mail" xmlns="http://www.w3.org/2000/svg" width="24.592" height="17.025" viewBox="0 0 24.592 17.025">
  <path d="M27.765,10.35,21.4,16.829a.114.114,0,0,0,0,.166l4.451,4.741a.767.767,0,0,1,0,1.088.771.771,0,0,1-1.088,0L20.334,18.1a.121.121,0,0,0-.171,0l-1.082,1.1a4.759,4.759,0,0,1-3.393,1.431,4.855,4.855,0,0,1-3.464-1.472L11.184,18.1a.121.121,0,0,0-.171,0L6.579,22.823a.771.771,0,0,1-1.088,0,.767.767,0,0,1,0-1.088l4.451-4.741a.126.126,0,0,0,0-.166L3.576,10.35a.117.117,0,0,0-.2.083V23.4a1.9,1.9,0,0,0,1.892,1.892H26.074A1.9,1.9,0,0,0,27.966,23.4V10.433A.118.118,0,0,0,27.765,10.35Z" transform="translate(-3.375 -8.263)" fill="#919191"/>
  <path d="M15.806,18.7a3.214,3.214,0,0,0,2.311-.969l9.275-9.44a1.858,1.858,0,0,0-1.17-.414H5.4a1.846,1.846,0,0,0-1.17.414l9.275,9.44A3.214,3.214,0,0,0,15.806,18.7Z" transform="translate(-3.511 -7.875)" fill="#919191"/>
</svg>
