<svg xmlns="http://www.w3.org/2000/svg" width="13.711" height="13.711" viewBox="0 0 13.711 13.711">
  <path id="Icon_metro-instagram" data-name="Icon metro-instagram" d="M14.005,1.928H4.847A2.283,2.283,0,0,0,2.571,4.2v9.158a2.283,2.283,0,0,0,2.276,2.276h9.158a2.283,2.283,0,0,0,2.276-2.276V4.2A2.283,2.283,0,0,0,14.005,1.928Zm-7.045,6h4.933a2.611,2.611,0,1,1-4.933,0Zm7.608,0v5.141a.859.859,0,0,1-.857.857H5.141a.859.859,0,0,1-.857-.857V7.926h1.34a3.9,3.9,0,1,0,7.6,0Zm0-3a.43.43,0,0,1-.428.428h-.857a.43.43,0,0,1-.428-.428V4.07a.43.43,0,0,1,.428-.428h.857a.43.43,0,0,1,.428.428Z" transform="translate(-2.571 -1.928)" fill="#777"/>
</svg>
