<svg xmlns="http://www.w3.org/2000/svg" viewBox="0 0 31.636 31.885">
  <path d="M2.827,22.666A1.245,1.245,0,0,1,1.2,21.993,15.817,15.817,0,0,1,26.268,4.075V1.245a1.246,1.246,0,0,1,2.491,0V7.187A1.253,1.253,0,0,1,27.514,8.5H21.5a1.246,1.246,0,0,1,0-2.491H24.7A13.328,13.328,0,0,0,3.5,21.039a1.246,1.246,0,0,1-.674,1.628ZM30.437,9.893a1.246,1.246,0,1,0-2.3.954,13.327,13.327,0,0,1-21.2,15.03h3.194a1.246,1.246,0,1,0,0-2.491H4.122A1.251,1.251,0,0,0,2.877,24.7V30.64a1.246,1.246,0,0,0,2.491,0V27.81A15.818,15.818,0,0,0,30.437,9.893Zm0,0" transform="translate(0 0)" fill="#63376f"/>
</svg>
